<mxfile host="app.diagrams.net" modified="2024-05-28T08:49:51.552Z" agent="Mozilla/5.0 (X11; Ubuntu; Linux x86_64; rv:126.0) Gecko/20100101 Firefox/126.0" etag="ZGGXIEw6eLumkJM1n7H2" version="24.4.9" type="device">
  <diagram name="Page-1" id="fNAACeyRhTbHs8daWRjg">
    <mxGraphModel dx="2856" dy="2900" grid="1" gridSize="10" guides="1" tooltips="1" connect="1" arrows="1" fold="1" page="1" pageScale="1" pageWidth="827" pageHeight="1169" math="0" shadow="0">
      <root>
        <mxCell id="0" />
        <mxCell id="1" parent="0" />
        <mxCell id="8EEDUkR6OtBrPcw9FvBm-1" value="R_ROOM" style="swimlane;fontStyle=0;childLayout=stackLayout;horizontal=1;startSize=26;fillColor=none;horizontalStack=0;resizeParent=1;resizeParentMax=0;resizeLast=0;collapsible=1;marginBottom=0;whiteSpace=wrap;html=1;" vertex="1" parent="1">
          <mxGeometry x="950" y="270" width="320" height="260" as="geometry" />
        </mxCell>
        <mxCell id="8EEDUkR6OtBrPcw9FvBm-2" value="&lt;div&gt;ROOM_NUM: INTEGER NOT NULL &amp;lt;&amp;lt;PK, PI&amp;gt;&amp;gt;&lt;br&gt;&lt;/div&gt;&lt;div&gt;&lt;br&gt;&lt;/div&gt;" style="text;strokeColor=none;fillColor=none;align=left;verticalAlign=top;spacingLeft=4;spacingRight=4;overflow=hidden;rotatable=0;points=[[0,0.5],[1,0.5]];portConstraint=eastwest;whiteSpace=wrap;html=1;" vertex="1" parent="8EEDUkR6OtBrPcw9FvBm-1">
          <mxGeometry y="26" width="320" height="24" as="geometry" />
        </mxCell>
        <mxCell id="8EEDUkR6OtBrPcw9FvBm-3" value="&lt;div&gt;ROOM_NAME: VARCHAR(20) NOT NULL&lt;br&gt;&lt;/div&gt;" style="text;strokeColor=none;fillColor=none;align=left;verticalAlign=top;spacingLeft=4;spacingRight=4;overflow=hidden;rotatable=0;points=[[0,0.5],[1,0.5]];portConstraint=eastwest;whiteSpace=wrap;html=1;" vertex="1" parent="8EEDUkR6OtBrPcw9FvBm-1">
          <mxGeometry y="50" width="320" height="26" as="geometry" />
        </mxCell>
        <mxCell id="8EEDUkR6OtBrPcw9FvBm-4" value="&lt;div&gt;FLOR_NUM: BYTEINT&lt;br&gt;&lt;/div&gt;&lt;div&gt;&lt;br&gt;&lt;/div&gt;&lt;div&gt;BUILD_NAME: VARCHAR(20)&lt;br&gt;&lt;/div&gt;&lt;div&gt;&lt;br&gt;&lt;/div&gt;&lt;div&gt;ROOM_TYP: VARCHAR(10) &lt;br&gt;&lt;/div&gt;&lt;div&gt;&lt;br&gt;&lt;/div&gt;&lt;div&gt;ROOM_DAY_RATE: SMALLINT NOT NULL&lt;/div&gt;&lt;div&gt;&lt;br&gt;&lt;/div&gt;&lt;div&gt;CRTN_DT: DATE NOT NULL&lt;/div&gt;&lt;div&gt;&lt;br&gt;&lt;/div&gt;&lt;div&gt;EXEC_ID: INTEGER NOT NULL &amp;lt;&amp;lt;FK&amp;gt;&amp;gt;&lt;br&gt;&lt;/div&gt;&lt;div&gt;&lt;br&gt;&lt;/div&gt;" style="text;strokeColor=none;fillColor=none;align=left;verticalAlign=top;spacingLeft=4;spacingRight=4;overflow=hidden;rotatable=0;points=[[0,0.5],[1,0.5]];portConstraint=eastwest;whiteSpace=wrap;html=1;" vertex="1" parent="8EEDUkR6OtBrPcw9FvBm-1">
          <mxGeometry y="76" width="320" height="184" as="geometry" />
        </mxCell>
        <mxCell id="8EEDUkR6OtBrPcw9FvBm-5" value="O_TRET" style="swimlane;fontStyle=0;childLayout=stackLayout;horizontal=1;startSize=26;fillColor=none;horizontalStack=0;resizeParent=1;resizeParentMax=0;resizeLast=0;collapsible=1;marginBottom=0;whiteSpace=wrap;html=1;" vertex="1" parent="1">
          <mxGeometry x="1000" y="785" width="320" height="230" as="geometry" />
        </mxCell>
        <mxCell id="8EEDUkR6OtBrPcw9FvBm-6" value="&lt;div&gt;TRET_ID: INTEGER NOT NULL &amp;lt;&amp;lt;PK, PI&amp;gt;&amp;gt;&lt;br&gt;&lt;/div&gt;&lt;div&gt;&lt;br&gt;&lt;/div&gt;" style="text;strokeColor=none;fillColor=none;align=left;verticalAlign=top;spacingLeft=4;spacingRight=4;overflow=hidden;rotatable=0;points=[[0,0.5],[1,0.5]];portConstraint=eastwest;whiteSpace=wrap;html=1;" vertex="1" parent="8EEDUkR6OtBrPcw9FvBm-5">
          <mxGeometry y="26" width="320" height="24" as="geometry" />
        </mxCell>
        <mxCell id="8EEDUkR6OtBrPcw9FvBm-7" value="&lt;div&gt;MDC_ID: INTEGER &amp;lt;&amp;lt;FK&amp;gt;&amp;gt;&lt;br&gt;&lt;/div&gt;" style="text;strokeColor=none;fillColor=none;align=left;verticalAlign=top;spacingLeft=4;spacingRight=4;overflow=hidden;rotatable=0;points=[[0,0.5],[1,0.5]];portConstraint=eastwest;whiteSpace=wrap;html=1;" vertex="1" parent="8EEDUkR6OtBrPcw9FvBm-5">
          <mxGeometry y="50" width="320" height="26" as="geometry" />
        </mxCell>
        <mxCell id="8EEDUkR6OtBrPcw9FvBm-8" value="&lt;div&gt;MDC_QTY: SMALLINT&lt;br&gt;&lt;/div&gt;&lt;div&gt;&lt;br&gt;&lt;/div&gt;&lt;div&gt;DOSG_DSC: VARCHAR(100) NOT NULL&lt;br&gt;&lt;/div&gt;&lt;div&gt;&lt;br&gt;&lt;/div&gt;&lt;div&gt;CONS_ID: INTEGER NOT NULL &amp;lt;&amp;lt;FK&amp;gt;&amp;gt; &lt;br&gt;&lt;/div&gt;&lt;div&gt;&lt;br&gt;&lt;/div&gt;&lt;div&gt;TRT_CRTN_DTTM: TIMESTAMP(0) NOT NULL&lt;/div&gt;&lt;div&gt;&lt;br&gt;&lt;/div&gt;&lt;div&gt;EXEC_ID: INTEGER NOT NULL &amp;lt;&amp;lt;FK&amp;gt;&amp;gt;&lt;br&gt;&lt;/div&gt;&lt;div&gt;&lt;br&gt;&lt;/div&gt;" style="text;strokeColor=none;fillColor=none;align=left;verticalAlign=top;spacingLeft=4;spacingRight=4;overflow=hidden;rotatable=0;points=[[0,0.5],[1,0.5]];portConstraint=eastwest;whiteSpace=wrap;html=1;" vertex="1" parent="8EEDUkR6OtBrPcw9FvBm-5">
          <mxGeometry y="76" width="320" height="154" as="geometry" />
        </mxCell>
        <mxCell id="8EEDUkR6OtBrPcw9FvBm-9" style="edgeStyle=orthogonalEdgeStyle;rounded=0;orthogonalLoop=1;jettySize=auto;html=1;" edge="1" parent="1" source="8EEDUkR6OtBrPcw9FvBm-10" target="8EEDUkR6OtBrPcw9FvBm-34">
          <mxGeometry relative="1" as="geometry" />
        </mxCell>
        <mxCell id="8EEDUkR6OtBrPcw9FvBm-10" value="R_PART" style="swimlane;fontStyle=0;childLayout=stackLayout;horizontal=1;startSize=26;fillColor=none;horizontalStack=0;resizeParent=1;resizeParentMax=0;resizeLast=0;collapsible=1;marginBottom=0;whiteSpace=wrap;html=1;" vertex="1" parent="1">
          <mxGeometry x="1660" y="1220" width="480" height="110" as="geometry" />
        </mxCell>
        <mxCell id="8EEDUkR6OtBrPcw9FvBm-11" value="&lt;div&gt;PART_ID: INTEGER NOT NULL &amp;lt;&amp;lt;PK, PI&amp;gt;&amp;gt; SURROGATE KEY(SRC_ID, SRC_TYPE)&lt;br&gt;&lt;/div&gt;&lt;div&gt;&lt;br&gt;&lt;/div&gt;" style="text;strokeColor=none;fillColor=none;align=left;verticalAlign=top;spacingLeft=4;spacingRight=4;overflow=hidden;rotatable=0;points=[[0,0.5],[1,0.5]];portConstraint=eastwest;whiteSpace=wrap;html=1;" vertex="1" parent="8EEDUkR6OtBrPcw9FvBm-10">
          <mxGeometry y="26" width="480" height="24" as="geometry" />
        </mxCell>
        <mxCell id="8EEDUkR6OtBrPcw9FvBm-12" value="&lt;div&gt;SRC_ID: INTEGER NOT NULL &amp;lt;&amp;lt;FK&amp;gt;&amp;gt;&lt;/div&gt;" style="text;strokeColor=none;fillColor=none;align=left;verticalAlign=top;spacingLeft=4;spacingRight=4;overflow=hidden;rotatable=0;points=[[0,0.5],[1,0.5]];portConstraint=eastwest;whiteSpace=wrap;html=1;" vertex="1" parent="8EEDUkR6OtBrPcw9FvBm-10">
          <mxGeometry y="50" width="480" height="26" as="geometry" />
        </mxCell>
        <mxCell id="8EEDUkR6OtBrPcw9FvBm-13" value="&lt;div&gt;SRC_TYPE : VARCHAR(50) NOT NULL&lt;br&gt;&lt;/div&gt;&lt;br&gt;&lt;div&gt;&lt;br&gt;&lt;/div&gt;" style="text;strokeColor=none;fillColor=none;align=left;verticalAlign=top;spacingLeft=4;spacingRight=4;overflow=hidden;rotatable=0;points=[[0,0.5],[1,0.5]];portConstraint=eastwest;whiteSpace=wrap;html=1;" vertex="1" parent="8EEDUkR6OtBrPcw9FvBm-10">
          <mxGeometry y="76" width="480" height="34" as="geometry" />
        </mxCell>
        <mxCell id="8EEDUkR6OtBrPcw9FvBm-14" value="O_INDV" style="swimlane;fontStyle=0;childLayout=stackLayout;horizontal=1;startSize=26;fillColor=none;horizontalStack=0;resizeParent=1;resizeParentMax=0;resizeLast=0;collapsible=1;marginBottom=0;whiteSpace=wrap;html=1;" vertex="1" parent="1">
          <mxGeometry x="1140" y="1410" width="340" height="340" as="geometry" />
        </mxCell>
        <mxCell id="8EEDUkR6OtBrPcw9FvBm-15" value="&lt;div&gt;PART_ID: INTEGER NOT NULL &amp;lt;&amp;lt;PFK, PI&amp;gt;&amp;gt;&lt;br&gt;&lt;/div&gt;&lt;div&gt;&lt;br&gt;&lt;/div&gt;" style="text;strokeColor=none;fillColor=none;align=left;verticalAlign=top;spacingLeft=4;spacingRight=4;overflow=hidden;rotatable=0;points=[[0,0.5],[1,0.5]];portConstraint=eastwest;whiteSpace=wrap;html=1;" vertex="1" parent="8EEDUkR6OtBrPcw9FvBm-14">
          <mxGeometry y="26" width="340" height="24" as="geometry" />
        </mxCell>
        <mxCell id="8EEDUkR6OtBrPcw9FvBm-16" value="&lt;div&gt;INDV_NAME: VARCHAR(100) NOT NULL&lt;br&gt;&lt;/div&gt;" style="text;strokeColor=none;fillColor=none;align=left;verticalAlign=top;spacingLeft=4;spacingRight=4;overflow=hidden;rotatable=0;points=[[0,0.5],[1,0.5]];portConstraint=eastwest;whiteSpace=wrap;html=1;" vertex="1" parent="8EEDUkR6OtBrPcw9FvBm-14">
          <mxGeometry y="50" width="340" height="26" as="geometry" />
        </mxCell>
        <mxCell id="8EEDUkR6OtBrPcw9FvBm-17" value="&lt;div&gt;INDV_FIRS_NAME: VARCHAR(100) NOT NULL&lt;br&gt;&lt;/div&gt;&lt;div&gt;&lt;br&gt;&lt;/div&gt;&lt;div&gt;INDV_STTS_CD: VARCHAR(10) NOT NULL intialize = &#39;Actif&#39;&lt;br&gt;&lt;/div&gt;&lt;div&gt;&lt;br&gt;&lt;/div&gt;&lt;div&gt;CRTN_DTTM: TIMESTAMP(0) NOT NULL &lt;br&gt;&lt;/div&gt;&lt;div&gt;&lt;br&gt;&lt;/div&gt;&lt;div&gt;UPDT_DTTM: TIMESTAMP(0) NOT NULL&lt;/div&gt;&lt;div&gt;&lt;br&gt;&lt;/div&gt;&lt;div&gt;BIRT_DT: DATE&lt;br&gt;&lt;/div&gt;&lt;div&gt;&lt;br&gt;&lt;/div&gt;&lt;div&gt;BIRT_CITY: VARCHAR(100) &lt;br&gt;&lt;/div&gt;&lt;div&gt;&lt;br&gt;&lt;/div&gt;&lt;div&gt;BIRT_CNTR: VARCHAR(100)&lt;/div&gt;&lt;div&gt;&lt;br&gt;&lt;/div&gt;&lt;div&gt;SOCL_NUM: VARCHAR(15)&lt;/div&gt;&lt;div&gt;&lt;br&gt;&lt;/div&gt;&lt;div&gt;EXEC_ID: INTEGER NOT NULL &amp;lt;&amp;lt;FK&amp;gt;&amp;gt;&lt;br&gt;&lt;/div&gt;&lt;div&gt;&lt;br&gt;&lt;/div&gt;" style="text;strokeColor=none;fillColor=none;align=left;verticalAlign=top;spacingLeft=4;spacingRight=4;overflow=hidden;rotatable=0;points=[[0,0.5],[1,0.5]];portConstraint=eastwest;whiteSpace=wrap;html=1;" vertex="1" parent="8EEDUkR6OtBrPcw9FvBm-14">
          <mxGeometry y="76" width="340" height="264" as="geometry" />
        </mxCell>
        <mxCell id="8EEDUkR6OtBrPcw9FvBm-18" style="edgeStyle=orthogonalEdgeStyle;rounded=0;orthogonalLoop=1;jettySize=auto;html=1;" edge="1" parent="1" source="8EEDUkR6OtBrPcw9FvBm-19" target="8EEDUkR6OtBrPcw9FvBm-12">
          <mxGeometry relative="1" as="geometry" />
        </mxCell>
        <mxCell id="8EEDUkR6OtBrPcw9FvBm-19" value="O_STFF" style="swimlane;fontStyle=0;childLayout=stackLayout;horizontal=1;startSize=26;fillColor=none;horizontalStack=0;resizeParent=1;resizeParentMax=0;resizeLast=0;collapsible=1;marginBottom=0;whiteSpace=wrap;html=1;" vertex="1" parent="1">
          <mxGeometry x="1190" y="1130" width="320" height="170" as="geometry" />
        </mxCell>
        <mxCell id="8EEDUkR6OtBrPcw9FvBm-20" value="&lt;div&gt;PART_ID: INTEGER NOT NULL &amp;lt;&amp;lt;PFK, PI&amp;gt;&amp;gt;&lt;br&gt;&lt;/div&gt;&lt;div&gt;&lt;br&gt;&lt;/div&gt;" style="text;strokeColor=none;fillColor=none;align=left;verticalAlign=top;spacingLeft=4;spacingRight=4;overflow=hidden;rotatable=0;points=[[0,0.5],[1,0.5]];portConstraint=eastwest;whiteSpace=wrap;html=1;" vertex="1" parent="8EEDUkR6OtBrPcw9FvBm-19">
          <mxGeometry y="26" width="320" height="24" as="geometry" />
        </mxCell>
        <mxCell id="8EEDUkR6OtBrPcw9FvBm-21" value="&lt;div&gt;WORK_STRT_DTTM: TIMESTAMP(0)&amp;nbsp; NOT NULL&lt;/div&gt;" style="text;strokeColor=none;fillColor=none;align=left;verticalAlign=top;spacingLeft=4;spacingRight=4;overflow=hidden;rotatable=0;points=[[0,0.5],[1,0.5]];portConstraint=eastwest;whiteSpace=wrap;html=1;" vertex="1" parent="8EEDUkR6OtBrPcw9FvBm-19">
          <mxGeometry y="50" width="320" height="26" as="geometry" />
        </mxCell>
        <mxCell id="8EEDUkR6OtBrPcw9FvBm-22" value="&lt;div&gt;WORK_END_DTTM: TIMESTAMP(0)&lt;br&gt;&lt;/div&gt;&lt;div&gt;&lt;br&gt;&lt;/div&gt;&lt;div&gt;WORK_END_RESN: VARCHAR(100)&lt;br&gt;&lt;/div&gt;&lt;div&gt;&lt;br&gt;&lt;/div&gt;&lt;div&gt;EXEC_ID: INTEGER NOT NULL &amp;lt;&amp;lt;FK&amp;gt;&amp;gt;&lt;br&gt;&lt;/div&gt;&lt;div&gt;&lt;br&gt;&lt;/div&gt;" style="text;strokeColor=none;fillColor=none;align=left;verticalAlign=top;spacingLeft=4;spacingRight=4;overflow=hidden;rotatable=0;points=[[0,0.5],[1,0.5]];portConstraint=eastwest;whiteSpace=wrap;html=1;" vertex="1" parent="8EEDUkR6OtBrPcw9FvBm-19">
          <mxGeometry y="76" width="320" height="94" as="geometry" />
        </mxCell>
        <mxCell id="8EEDUkR6OtBrPcw9FvBm-23" value="O_TELP" style="swimlane;fontStyle=0;childLayout=stackLayout;horizontal=1;startSize=26;fillColor=none;horizontalStack=0;resizeParent=1;resizeParentMax=0;resizeLast=0;collapsible=1;marginBottom=0;whiteSpace=wrap;html=1;" vertex="1" parent="1">
          <mxGeometry x="1950" y="1420" width="320" height="280" as="geometry" />
        </mxCell>
        <mxCell id="8EEDUkR6OtBrPcw9FvBm-24" value="&lt;div&gt;PART_ID: INTEGER NOT NULL &amp;lt;&amp;lt;FK, PI&amp;gt;&amp;gt;&lt;br&gt;&lt;/div&gt;&lt;div&gt;&lt;br&gt;&lt;/div&gt;" style="text;strokeColor=none;fillColor=none;align=left;verticalAlign=top;spacingLeft=4;spacingRight=4;overflow=hidden;rotatable=0;points=[[0,0.5],[1,0.5]];portConstraint=eastwest;whiteSpace=wrap;html=1;" vertex="1" parent="8EEDUkR6OtBrPcw9FvBm-23">
          <mxGeometry y="26" width="320" height="24" as="geometry" />
        </mxCell>
        <mxCell id="8EEDUkR6OtBrPcw9FvBm-25" value="&lt;div&gt;CNTR_IND: VARCHAR(5)&lt;br&gt;&lt;/div&gt;" style="text;strokeColor=none;fillColor=none;align=left;verticalAlign=top;spacingLeft=4;spacingRight=4;overflow=hidden;rotatable=0;points=[[0,0.5],[1,0.5]];portConstraint=eastwest;whiteSpace=wrap;html=1;" vertex="1" parent="8EEDUkR6OtBrPcw9FvBm-23">
          <mxGeometry y="50" width="320" height="26" as="geometry" />
        </mxCell>
        <mxCell id="8EEDUkR6OtBrPcw9FvBm-26" value="&lt;div&gt;TELP_NUM: VARCHAR(20) NOT NULL&lt;br&gt;&lt;/div&gt;&lt;div&gt;&lt;br&gt;&lt;/div&gt;&lt;div&gt;STRT_VALD_DTTM: TIMESTAMP(0) NOT NULL&lt;br&gt;&lt;/div&gt;&lt;div&gt;&lt;br&gt;&lt;/div&gt;&lt;div&gt;END_VALD_DTTM: TIMESTAMP(0) NOT NULL &lt;br&gt;&lt;/div&gt;&lt;div&gt;&lt;br&gt;&lt;/div&gt;&lt;div&gt;EXEC_ID: INTEGER NOT NULL &amp;lt;&amp;lt;FK&amp;gt;&amp;gt;&lt;br&gt;&lt;/div&gt;&lt;div&gt;&lt;br&gt;&lt;/div&gt;" style="text;strokeColor=none;fillColor=none;align=left;verticalAlign=top;spacingLeft=4;spacingRight=4;overflow=hidden;rotatable=0;points=[[0,0.5],[1,0.5]];portConstraint=eastwest;whiteSpace=wrap;html=1;" vertex="1" parent="8EEDUkR6OtBrPcw9FvBm-23">
          <mxGeometry y="76" width="320" height="114" as="geometry" />
        </mxCell>
        <mxCell id="8EEDUkR6OtBrPcw9FvBm-60" value="&amp;lt;&amp;lt;(PART_ID, STRT_VALD_DTTM) PK&lt;b&gt;&amp;gt;&amp;gt;&lt;/b&gt;" style="html=1;dropTarget=0;whiteSpace=wrap;" vertex="1" parent="8EEDUkR6OtBrPcw9FvBm-23">
          <mxGeometry y="190" width="320" height="90" as="geometry" />
        </mxCell>
        <mxCell id="8EEDUkR6OtBrPcw9FvBm-61" value="" style="shape=module;jettyWidth=8;jettyHeight=4;" vertex="1" parent="8EEDUkR6OtBrPcw9FvBm-60">
          <mxGeometry x="1" width="20" height="20" relative="1" as="geometry">
            <mxPoint x="-27" y="7" as="offset" />
          </mxGeometry>
        </mxCell>
        <mxCell id="8EEDUkR6OtBrPcw9FvBm-27" value="O_ADDR" style="swimlane;fontStyle=0;childLayout=stackLayout;horizontal=1;startSize=26;fillColor=none;horizontalStack=0;resizeParent=1;resizeParentMax=0;resizeLast=0;collapsible=1;marginBottom=0;whiteSpace=wrap;html=1;" vertex="1" parent="1">
          <mxGeometry x="1560" y="1420" width="320" height="390" as="geometry" />
        </mxCell>
        <mxCell id="8EEDUkR6OtBrPcw9FvBm-28" value="&lt;div&gt;PART_ID: INTEGER NOT NULL &amp;lt;&amp;lt;FK, PI&amp;gt;&amp;gt;&lt;br&gt;&lt;/div&gt;&lt;div&gt;&lt;br&gt;&lt;/div&gt;" style="text;strokeColor=none;fillColor=none;align=left;verticalAlign=top;spacingLeft=4;spacingRight=4;overflow=hidden;rotatable=0;points=[[0,0.5],[1,0.5]];portConstraint=eastwest;whiteSpace=wrap;html=1;" vertex="1" parent="8EEDUkR6OtBrPcw9FvBm-27">
          <mxGeometry y="26" width="320" height="24" as="geometry" />
        </mxCell>
        <mxCell id="8EEDUkR6OtBrPcw9FvBm-29" value="STRT_NUM: VARCHAR(10) NOT NULL" style="text;strokeColor=none;fillColor=none;align=left;verticalAlign=top;spacingLeft=4;spacingRight=4;overflow=hidden;rotatable=0;points=[[0,0.5],[1,0.5]];portConstraint=eastwest;whiteSpace=wrap;html=1;" vertex="1" parent="8EEDUkR6OtBrPcw9FvBm-27">
          <mxGeometry y="50" width="320" height="26" as="geometry" />
        </mxCell>
        <mxCell id="8EEDUkR6OtBrPcw9FvBm-30" value="&lt;div&gt;STRT_DSC: VARCHAR(250) NOT NULL&lt;br&gt;&lt;/div&gt;&lt;div&gt;&lt;br&gt;&lt;/div&gt;&lt;div&gt;COMP_STRT: VARCHAR(250)&lt;br&gt;&lt;/div&gt;&lt;div&gt;&lt;br&gt;&lt;/div&gt;&lt;div&gt;POST_CD: VARCHAR(10) NOT NULL &lt;br&gt;&lt;/div&gt;&lt;div&gt;&lt;br&gt;&lt;/div&gt;&lt;div&gt;CITY_NAME: VARCHAR(100)&lt;/div&gt;&lt;div&gt;&lt;br&gt;&lt;/div&gt;&lt;div&gt;CNTR_NAME: VARCHAR(100)&lt;/div&gt;&lt;div&gt;&lt;br&gt;&lt;/div&gt;&lt;div&gt;&lt;div&gt;STRT_VALD_DTTM: TIMESTAMP(0) NOT NULL&lt;br&gt;&lt;/div&gt;&lt;div&gt;&lt;br&gt;&lt;/div&gt;END_VALD_DTTM: TIMESTAMP(0) NOT NULL &lt;/div&gt;&lt;div&gt;&lt;br&gt;&lt;/div&gt;&lt;div&gt;EXEC_ID: INTEGER NOT NULL &amp;lt;&amp;lt;FK&amp;gt;&amp;gt;&lt;br&gt;&lt;/div&gt;&lt;div&gt;&lt;br&gt;&lt;/div&gt;" style="text;strokeColor=none;fillColor=none;align=left;verticalAlign=top;spacingLeft=4;spacingRight=4;overflow=hidden;rotatable=0;points=[[0,0.5],[1,0.5]];portConstraint=eastwest;whiteSpace=wrap;html=1;" vertex="1" parent="8EEDUkR6OtBrPcw9FvBm-27">
          <mxGeometry y="76" width="320" height="224" as="geometry" />
        </mxCell>
        <mxCell id="8EEDUkR6OtBrPcw9FvBm-58" value="&amp;lt;&amp;lt;(PART_ID, STRT_VALD_DTTM) PK&lt;b&gt;&amp;gt;&amp;gt;&lt;/b&gt;" style="html=1;dropTarget=0;whiteSpace=wrap;" vertex="1" parent="8EEDUkR6OtBrPcw9FvBm-27">
          <mxGeometry y="300" width="320" height="90" as="geometry" />
        </mxCell>
        <mxCell id="8EEDUkR6OtBrPcw9FvBm-59" value="" style="shape=module;jettyWidth=8;jettyHeight=4;" vertex="1" parent="8EEDUkR6OtBrPcw9FvBm-58">
          <mxGeometry x="1" width="20" height="20" relative="1" as="geometry">
            <mxPoint x="-27" y="7" as="offset" />
          </mxGeometry>
        </mxCell>
        <mxCell id="8EEDUkR6OtBrPcw9FvBm-31" value="O_CONS" style="swimlane;fontStyle=0;childLayout=stackLayout;horizontal=1;startSize=26;fillColor=none;horizontalStack=0;resizeParent=1;resizeParentMax=0;resizeLast=0;collapsible=1;marginBottom=0;whiteSpace=wrap;html=1;" vertex="1" parent="1">
          <mxGeometry x="1480" y="700" width="320" height="420" as="geometry" />
        </mxCell>
        <mxCell id="8EEDUkR6OtBrPcw9FvBm-32" value="&lt;div&gt;CONS_ID : INTEGER NOT NULL &amp;lt;&amp;lt;PFK&amp;gt;&amp;gt;&lt;br&gt;&lt;/div&gt;&lt;div&gt;&lt;br&gt;&lt;/div&gt;" style="text;strokeColor=none;fillColor=none;align=left;verticalAlign=top;spacingLeft=4;spacingRight=4;overflow=hidden;rotatable=0;points=[[0,0.5],[1,0.5]];portConstraint=eastwest;whiteSpace=wrap;html=1;" vertex="1" parent="8EEDUkR6OtBrPcw9FvBm-31">
          <mxGeometry y="26" width="320" height="24" as="geometry" />
        </mxCell>
        <mxCell id="8EEDUkR6OtBrPcw9FvBm-33" value="STFF_ID: INTEGER NOT NULL &amp;lt;&amp;lt;FK&amp;gt;&amp;gt;" style="text;strokeColor=none;fillColor=none;align=left;verticalAlign=top;spacingLeft=4;spacingRight=4;overflow=hidden;rotatable=0;points=[[0,0.5],[1,0.5]];portConstraint=eastwest;whiteSpace=wrap;html=1;" vertex="1" parent="8EEDUkR6OtBrPcw9FvBm-31">
          <mxGeometry y="50" width="320" height="26" as="geometry" />
        </mxCell>
        <mxCell id="8EEDUkR6OtBrPcw9FvBm-34" value="&lt;div&gt;PATN_ID: INTEGER NOT NULL &amp;lt;&amp;lt;FK, PI&amp;gt;&amp;gt;&lt;br&gt;&lt;/div&gt;&lt;div&gt;&lt;br&gt;&lt;/div&gt;&lt;div&gt;CONS_STRT_DTTM: TIMESTAMP(0) NOT NULL&lt;br&gt;&lt;/div&gt;&lt;div&gt;&lt;br&gt;&lt;/div&gt;&lt;div&gt;CONS_END_DTTM: TIMESTAMP(0) NOT NULL &lt;br&gt;&lt;/div&gt;&lt;div&gt;&lt;br&gt;&lt;/div&gt;&lt;div&gt;PATN_WEGH: INTEGER NOT NULL&lt;br&gt;&lt;/div&gt;&lt;div&gt;&lt;br&gt;&lt;/div&gt;&lt;div&gt;PATN_TEMP: INTEGER&lt;/div&gt;&lt;div&gt;&lt;br&gt;&lt;div&gt;TEMP_UNIT: VARCHAR(15)&lt;br&gt;&lt;/div&gt;&lt;div&gt;&lt;br&gt;&lt;/div&gt;&lt;div&gt;BLD_PRESS: INTEGER&lt;/div&gt;&lt;div&gt;&lt;br&gt;&lt;/div&gt;PATH_DESC: VARCHAR(250)&lt;br&gt;&lt;/div&gt;&lt;div&gt;&lt;div&gt;&lt;br&gt;&lt;/div&gt;DIBT_IND: BYTEINT&lt;/div&gt;&lt;div&gt;&lt;br&gt;&lt;/div&gt;&lt;div&gt;TRET_ID TIMESTAMP(0) ???&lt;/div&gt;&lt;div&gt;&lt;br&gt;&lt;/div&gt;&lt;div&gt;HOSP_IND: BYTEINT&lt;br&gt; &lt;/div&gt;&lt;div&gt;&lt;br&gt;&lt;/div&gt;&lt;div&gt;EXEC_ID: INTEGER NOT NULL &amp;lt;&amp;lt;FK&amp;gt;&amp;gt;&lt;br&gt;&lt;/div&gt;&lt;div&gt;&lt;br&gt;&lt;/div&gt;" style="text;strokeColor=none;fillColor=none;align=left;verticalAlign=top;spacingLeft=4;spacingRight=4;overflow=hidden;rotatable=0;points=[[0,0.5],[1,0.5]];portConstraint=eastwest;whiteSpace=wrap;html=1;" vertex="1" parent="8EEDUkR6OtBrPcw9FvBm-31">
          <mxGeometry y="76" width="320" height="344" as="geometry" />
        </mxCell>
        <mxCell id="8EEDUkR6OtBrPcw9FvBm-35" style="edgeStyle=orthogonalEdgeStyle;rounded=0;orthogonalLoop=1;jettySize=auto;html=1;entryX=0.5;entryY=0;entryDx=0;entryDy=0;" edge="1" parent="1" source="8EEDUkR6OtBrPcw9FvBm-36" target="8EEDUkR6OtBrPcw9FvBm-31">
          <mxGeometry relative="1" as="geometry" />
        </mxCell>
        <mxCell id="8EEDUkR6OtBrPcw9FvBm-36" value="O_HOSP" style="swimlane;fontStyle=0;childLayout=stackLayout;horizontal=1;startSize=26;fillColor=none;horizontalStack=0;resizeParent=1;resizeParentMax=0;resizeLast=0;collapsible=1;marginBottom=0;whiteSpace=wrap;html=1;" vertex="1" parent="1">
          <mxGeometry x="1400" y="270" width="320" height="260" as="geometry" />
        </mxCell>
        <mxCell id="8EEDUkR6OtBrPcw9FvBm-37" value="&lt;div&gt;HOSP_ID: INTEGER NOT NULL &amp;lt;&amp;lt;PK&amp;gt;&amp;gt;&lt;br&gt;&lt;/div&gt;&lt;div&gt;&lt;br&gt;&lt;/div&gt;" style="text;strokeColor=none;fillColor=none;align=left;verticalAlign=top;spacingLeft=4;spacingRight=4;overflow=hidden;rotatable=0;points=[[0,0.5],[1,0.5]];portConstraint=eastwest;whiteSpace=wrap;html=1;" vertex="1" parent="8EEDUkR6OtBrPcw9FvBm-36">
          <mxGeometry y="26" width="320" height="24" as="geometry" />
        </mxCell>
        <mxCell id="8EEDUkR6OtBrPcw9FvBm-38" value="CONS_ID: INTEGER NOT NULL &amp;lt;&amp;lt;PI&amp;gt;&amp;gt;" style="text;strokeColor=none;fillColor=none;align=left;verticalAlign=top;spacingLeft=4;spacingRight=4;overflow=hidden;rotatable=0;points=[[0,0.5],[1,0.5]];portConstraint=eastwest;whiteSpace=wrap;html=1;" vertex="1" parent="8EEDUkR6OtBrPcw9FvBm-36">
          <mxGeometry y="50" width="320" height="26" as="geometry" />
        </mxCell>
        <mxCell id="8EEDUkR6OtBrPcw9FvBm-39" value="&lt;div&gt;ROOM_NUM: SMALL_INT NOT NULL&lt;br&gt;&lt;/div&gt;&lt;div&gt;&lt;br&gt;&lt;/div&gt;&lt;div&gt;HOSP_STRT_DTTM: TIMESTAMP(0) NOT NULL&lt;br&gt;&lt;/div&gt;&lt;div&gt;&lt;br&gt;&lt;/div&gt;&lt;div&gt;HOSP_END_DTTM: TIMESTAMP(0) NOT NULL &lt;br&gt;&lt;/div&gt;&lt;div&gt;&lt;br&gt;&lt;/div&gt;&lt;div&gt;HOSP_FINAL_RATE: TIMESTAMP(0) NOT NULL&lt;br&gt;&lt;/div&gt;&lt;div&gt;&lt;br&gt;&lt;/div&gt;&lt;div&gt;STFF_ID: INTEGER NOT NULL &amp;lt;&amp;lt;FK&amp;gt;&amp;gt;&lt;br&gt;&lt;/div&gt;&lt;div&gt;&lt;br&gt;&lt;/div&gt;&lt;div&gt;EXEC_ID: INTEGER NOT NULL &amp;lt;&amp;lt;FK&amp;gt;&amp;gt;&lt;br&gt;&lt;/div&gt;&lt;div&gt;&lt;br&gt;&lt;/div&gt;" style="text;strokeColor=none;fillColor=none;align=left;verticalAlign=top;spacingLeft=4;spacingRight=4;overflow=hidden;rotatable=0;points=[[0,0.5],[1,0.5]];portConstraint=eastwest;whiteSpace=wrap;html=1;" vertex="1" parent="8EEDUkR6OtBrPcw9FvBm-36">
          <mxGeometry y="76" width="320" height="184" as="geometry" />
        </mxCell>
        <mxCell id="8EEDUkR6OtBrPcw9FvBm-40" value="R_MEDC" style="swimlane;fontStyle=0;childLayout=stackLayout;horizontal=1;startSize=26;fillColor=none;horizontalStack=0;resizeParent=1;resizeParentMax=0;resizeLast=0;collapsible=1;marginBottom=0;whiteSpace=wrap;html=1;" vertex="1" parent="1">
          <mxGeometry x="570" y="790" width="320" height="230" as="geometry" />
        </mxCell>
        <mxCell id="8EEDUkR6OtBrPcw9FvBm-41" value="&lt;div&gt;MEDC_ID: INTEGER NOT NULL &amp;lt;&amp;lt;PK, PI&amp;gt;&amp;gt;&lt;br&gt;&lt;/div&gt;&lt;div&gt;&lt;br&gt;&lt;/div&gt;" style="text;strokeColor=none;fillColor=none;align=left;verticalAlign=top;spacingLeft=4;spacingRight=4;overflow=hidden;rotatable=0;points=[[0,0.5],[1,0.5]];portConstraint=eastwest;whiteSpace=wrap;html=1;" vertex="1" parent="8EEDUkR6OtBrPcw9FvBm-40">
          <mxGeometry y="26" width="320" height="24" as="geometry" />
        </mxCell>
        <mxCell id="8EEDUkR6OtBrPcw9FvBm-42" value="MEDC_CD: VARCHAR(10) NOT NULL" style="text;strokeColor=none;fillColor=none;align=left;verticalAlign=top;spacingLeft=4;spacingRight=4;overflow=hidden;rotatable=0;points=[[0,0.5],[1,0.5]];portConstraint=eastwest;whiteSpace=wrap;html=1;" vertex="1" parent="8EEDUkR6OtBrPcw9FvBm-40">
          <mxGeometry y="50" width="320" height="26" as="geometry" />
        </mxCell>
        <mxCell id="8EEDUkR6OtBrPcw9FvBm-43" value="&lt;div&gt;MEDC_NAME: VARCHAR(250)&lt;br&gt;&lt;/div&gt;&lt;div&gt;&lt;br&gt;&lt;/div&gt;&lt;div&gt;MEDC_COND: VARCHAR(100)&lt;br&gt;&lt;/div&gt;&lt;div&gt;&lt;br&gt;&lt;/div&gt;&lt;div&gt;MEDC_CATG: VARCHAR(100) NOT NULL &lt;br&gt;&lt;/div&gt;&lt;div&gt;&lt;br&gt;&lt;/div&gt;&lt;div&gt;MANF_BRND: VARCHAR(100) NOT NULL&lt;br&gt;&lt;/div&gt;&lt;div&gt;&lt;br&gt;&lt;/div&gt;&lt;div&gt;EXEC_ID: INTEGER NOT NULL &amp;lt;&amp;lt;FK&amp;gt;&amp;gt;&lt;br&gt;&lt;/div&gt;&lt;div&gt;&lt;br&gt;&lt;/div&gt;" style="text;strokeColor=none;fillColor=none;align=left;verticalAlign=top;spacingLeft=4;spacingRight=4;overflow=hidden;rotatable=0;points=[[0,0.5],[1,0.5]];portConstraint=eastwest;whiteSpace=wrap;html=1;" vertex="1" parent="8EEDUkR6OtBrPcw9FvBm-40">
          <mxGeometry y="76" width="320" height="154" as="geometry" />
        </mxCell>
        <mxCell id="8EEDUkR6OtBrPcw9FvBm-44" value="T_SUIV_TRMT" style="swimlane;fontStyle=0;childLayout=stackLayout;horizontal=1;startSize=26;fillColor=none;horizontalStack=0;resizeParent=1;resizeParentMax=0;resizeLast=0;collapsible=1;marginBottom=0;whiteSpace=wrap;html=1;" vertex="1" parent="1">
          <mxGeometry x="220" y="1833" width="320" height="190" as="geometry" />
        </mxCell>
        <mxCell id="8EEDUkR6OtBrPcw9FvBm-45" value="&lt;div&gt;RUN_ID: INTEGER NOT NULL&lt;br&gt;&lt;/div&gt;&lt;div&gt;&lt;br&gt;&lt;/div&gt;" style="text;strokeColor=none;fillColor=none;align=left;verticalAlign=top;spacingLeft=4;spacingRight=4;overflow=hidden;rotatable=0;points=[[0,0.5],[1,0.5]];portConstraint=eastwest;whiteSpace=wrap;html=1;" vertex="1" parent="8EEDUkR6OtBrPcw9FvBm-44">
          <mxGeometry y="26" width="320" height="24" as="geometry" />
        </mxCell>
        <mxCell id="8EEDUkR6OtBrPcw9FvBm-46" value="SCRPT_NAME: VARCHAR(250) NOT NULL" style="text;strokeColor=none;fillColor=none;align=left;verticalAlign=top;spacingLeft=4;spacingRight=4;overflow=hidden;rotatable=0;points=[[0,0.5],[1,0.5]];portConstraint=eastwest;whiteSpace=wrap;html=1;" vertex="1" parent="8EEDUkR6OtBrPcw9FvBm-44">
          <mxGeometry y="50" width="320" height="26" as="geometry" />
        </mxCell>
        <mxCell id="8EEDUkR6OtBrPcw9FvBm-47" value="&lt;div&gt;EXEC_STRT_DTTM: TIMESTAMP(0) NOT NULL&lt;br&gt;&lt;/div&gt;&lt;div&gt;&lt;br&gt;&lt;/div&gt;&lt;div&gt;EXEC_END_DTTM: TIMESTAMP(0)&lt;/div&gt;&lt;div&gt;&lt;br&gt;&lt;/div&gt;&lt;div&gt;EXEC_STTS_CD: VARCHAR(10) NOT NULL&lt;br&gt;&lt;/div&gt;&lt;div&gt;&lt;br&gt;&lt;/div&gt;&lt;div&gt;EXEC_ID: INTEGER NOT NULL &amp;lt;&amp;lt;PK, PI&amp;gt;&amp;gt;&lt;br&gt;&lt;/div&gt;&lt;div&gt;&lt;br&gt;&lt;/div&gt;" style="text;strokeColor=none;fillColor=none;align=left;verticalAlign=top;spacingLeft=4;spacingRight=4;overflow=hidden;rotatable=0;points=[[0,0.5],[1,0.5]];portConstraint=eastwest;whiteSpace=wrap;html=1;" vertex="1" parent="8EEDUkR6OtBrPcw9FvBm-44">
          <mxGeometry y="76" width="320" height="114" as="geometry" />
        </mxCell>
        <mxCell id="8EEDUkR6OtBrPcw9FvBm-48" value="T_SUIV_RUN" style="swimlane;fontStyle=0;childLayout=stackLayout;horizontal=1;startSize=26;fillColor=none;horizontalStack=0;resizeParent=1;resizeParentMax=0;resizeLast=0;collapsible=1;marginBottom=0;whiteSpace=wrap;html=1;" vertex="1" parent="1">
          <mxGeometry x="220" y="1640" width="320" height="140" as="geometry" />
        </mxCell>
        <mxCell id="8EEDUkR6OtBrPcw9FvBm-49" value="&lt;div&gt;RUN_ID: INTEGER NOT NULL &amp;lt;&amp;lt;PK, PI&amp;gt;&amp;gt;&lt;br&gt;&lt;/div&gt;&lt;div&gt;&lt;br&gt;&lt;/div&gt;" style="text;strokeColor=none;fillColor=none;align=left;verticalAlign=top;spacingLeft=4;spacingRight=4;overflow=hidden;rotatable=0;points=[[0,0.5],[1,0.5]];portConstraint=eastwest;whiteSpace=wrap;html=1;" vertex="1" parent="8EEDUkR6OtBrPcw9FvBm-48">
          <mxGeometry y="26" width="320" height="24" as="geometry" />
        </mxCell>
        <mxCell id="8EEDUkR6OtBrPcw9FvBm-50" value="RUN_STRT_DTTM: TIMESTAMP(0) NOT NULL" style="text;strokeColor=none;fillColor=none;align=left;verticalAlign=top;spacingLeft=4;spacingRight=4;overflow=hidden;rotatable=0;points=[[0,0.5],[1,0.5]];portConstraint=eastwest;whiteSpace=wrap;html=1;" vertex="1" parent="8EEDUkR6OtBrPcw9FvBm-48">
          <mxGeometry y="50" width="320" height="26" as="geometry" />
        </mxCell>
        <mxCell id="8EEDUkR6OtBrPcw9FvBm-51" value="&lt;div&gt;RUN_E D_DTTM: TIMESTAMP(0)&lt;br&gt;&lt;/div&gt;&lt;div&gt;&lt;br&gt;&lt;/div&gt;&lt;div&gt;RUN_STTS_CD: VARCHAR(10) NOT NULL&lt;br&gt;&lt;/div&gt;&lt;div&gt;&lt;br&gt;&lt;/div&gt;" style="text;strokeColor=none;fillColor=none;align=left;verticalAlign=top;spacingLeft=4;spacingRight=4;overflow=hidden;rotatable=0;points=[[0,0.5],[1,0.5]];portConstraint=eastwest;whiteSpace=wrap;html=1;" vertex="1" parent="8EEDUkR6OtBrPcw9FvBm-48">
          <mxGeometry y="76" width="320" height="64" as="geometry" />
        </mxCell>
        <mxCell id="8EEDUkR6OtBrPcw9FvBm-52" style="edgeStyle=orthogonalEdgeStyle;rounded=0;orthogonalLoop=1;jettySize=auto;html=1;entryX=-0.004;entryY=0.295;entryDx=0;entryDy=0;entryPerimeter=0;" edge="1" parent="1" source="8EEDUkR6OtBrPcw9FvBm-1" target="8EEDUkR6OtBrPcw9FvBm-39">
          <mxGeometry relative="1" as="geometry" />
        </mxCell>
        <mxCell id="8EEDUkR6OtBrPcw9FvBm-53" style="edgeStyle=orthogonalEdgeStyle;rounded=0;orthogonalLoop=1;jettySize=auto;html=1;entryX=0.001;entryY=0.362;entryDx=0;entryDy=0;entryPerimeter=0;" edge="1" parent="1" source="8EEDUkR6OtBrPcw9FvBm-5" target="8EEDUkR6OtBrPcw9FvBm-34">
          <mxGeometry relative="1" as="geometry" />
        </mxCell>
        <mxCell id="8EEDUkR6OtBrPcw9FvBm-54" style="edgeStyle=orthogonalEdgeStyle;rounded=0;orthogonalLoop=1;jettySize=auto;html=1;entryX=-0.02;entryY=0.288;entryDx=0;entryDy=0;entryPerimeter=0;" edge="1" parent="1" source="8EEDUkR6OtBrPcw9FvBm-40" target="8EEDUkR6OtBrPcw9FvBm-8">
          <mxGeometry relative="1" as="geometry" />
        </mxCell>
        <mxCell id="8EEDUkR6OtBrPcw9FvBm-55" style="edgeStyle=orthogonalEdgeStyle;rounded=0;orthogonalLoop=1;jettySize=auto;html=1;entryX=0.152;entryY=1.157;entryDx=0;entryDy=0;entryPerimeter=0;" edge="1" parent="1" source="8EEDUkR6OtBrPcw9FvBm-14" target="8EEDUkR6OtBrPcw9FvBm-13">
          <mxGeometry relative="1" as="geometry" />
        </mxCell>
        <mxCell id="8EEDUkR6OtBrPcw9FvBm-56" style="edgeStyle=orthogonalEdgeStyle;rounded=0;orthogonalLoop=1;jettySize=auto;html=1;entryX=0.537;entryY=1.026;entryDx=0;entryDy=0;entryPerimeter=0;" edge="1" parent="1" source="8EEDUkR6OtBrPcw9FvBm-27" target="8EEDUkR6OtBrPcw9FvBm-13">
          <mxGeometry relative="1" as="geometry" />
        </mxCell>
        <mxCell id="8EEDUkR6OtBrPcw9FvBm-57" style="edgeStyle=orthogonalEdgeStyle;rounded=0;orthogonalLoop=1;jettySize=auto;html=1;entryX=1.013;entryY=-0.281;entryDx=0;entryDy=0;entryPerimeter=0;" edge="1" parent="1" source="8EEDUkR6OtBrPcw9FvBm-23" target="8EEDUkR6OtBrPcw9FvBm-13">
          <mxGeometry relative="1" as="geometry" />
        </mxCell>
        <mxCell id="8EEDUkR6OtBrPcw9FvBm-62" value="TRED_ID devrait être plutôt un INTEGER ?" style="html=1;dropTarget=0;whiteSpace=wrap;" vertex="1" parent="1">
          <mxGeometry x="1800" y="700" width="320" height="90" as="geometry" />
        </mxCell>
        <mxCell id="8EEDUkR6OtBrPcw9FvBm-63" value="" style="shape=module;jettyWidth=8;jettyHeight=4;" vertex="1" parent="8EEDUkR6OtBrPcw9FvBm-62">
          <mxGeometry x="1" width="20" height="20" relative="1" as="geometry">
            <mxPoint x="-27" y="7" as="offset" />
          </mxGeometry>
        </mxCell>
        <mxCell id="8EEDUkR6OtBrPcw9FvBm-66" value="" style="endArrow=block;endFill=1;html=1;edgeStyle=orthogonalEdgeStyle;align=left;verticalAlign=top;rounded=0;exitX=0.563;exitY=1.016;exitDx=0;exitDy=0;exitPerimeter=0;entryX=0.563;entryY=-0.023;entryDx=0;entryDy=0;entryPerimeter=0;" edge="1" parent="1" source="8EEDUkR6OtBrPcw9FvBm-51" target="8EEDUkR6OtBrPcw9FvBm-44">
          <mxGeometry x="-1" relative="1" as="geometry">
            <mxPoint x="150" y="1920" as="sourcePoint" />
            <mxPoint x="310" y="1920" as="targetPoint" />
            <Array as="points" />
          </mxGeometry>
        </mxCell>
      </root>
    </mxGraphModel>
  </diagram>
</mxfile>
